<?xml version="1.0" encoding="iso-8859-1"?>
<!-- Generator: Adobe Illustrator 26.0.1, SVG Export Plug-In . SVG Version: 6.00 Build 0)  -->
<svg version="1.1" id="Layer_1" xmlns="http://www.w3.org/2000/svg" xmlns:xlink="http://www.w3.org/1999/xlink" x="0px" y="0px"
	 viewBox="0 0 1000 1000" style="enable-background:new 0 0 1000 1000;" xml:space="preserve">
<g id="watermark_1_">
	<g>
		<g id="watermark" style="opacity:0.61;">
			<g>
				<g>
					<g>
						<g>
							<polygon style="fill:#FFFFFF;" points="421.112,924.528 409.007,952.493 402.615,952.493 390.55,924.528 397.541,924.528 
								406.051,944.503 414.68,924.528 							"/>
						</g>
						<g>
							<path style="fill:#FFFFFF;" d="M442.323,943.185h-16.26c0.599,2.677,2.876,4.315,6.153,4.315
								c2.277,0,3.915-0.679,5.393-2.077l3.316,3.595c-1.997,2.278-4.994,3.476-8.868,3.476c-7.431,0-12.265-4.674-12.265-11.067
								c0-6.432,4.914-11.066,11.466-11.066c6.312,0,11.186,4.235,11.186,11.146C442.443,941.987,442.363,942.666,442.323,943.185
								 M425.983,939.55h10.587c-0.44-2.717-2.478-4.475-5.274-4.475C428.46,935.075,426.422,936.793,425.983,939.55"/>
						</g>
						<g>
							<path style="fill:#FFFFFF;" d="M444.997,941.427c0-6.471,4.994-11.066,11.985-11.066c4.514,0,8.07,1.958,9.628,5.473
								l-4.834,2.597c-1.159-2.038-2.877-2.956-4.834-2.956c-3.156,0-5.633,2.198-5.633,5.952c0,3.756,2.477,5.953,5.633,5.953
								c1.958,0,3.675-0.879,4.834-2.956l4.834,2.637c-1.558,3.436-5.114,5.433-9.628,5.433
								C449.991,952.493,444.997,947.899,444.997,941.427"/>
						</g>
						<g>
							<path style="fill:#FFFFFF;" d="M484.386,951.135c-1.279,0.919-3.157,1.358-5.074,1.358c-5.073,0-8.03-2.597-8.03-7.711
								v-8.829h-3.316v-4.794h3.316v-5.233h6.232v5.233h5.353v4.794h-5.353v8.749c0,1.837,0.998,2.836,2.677,2.836
								c0.918,0,1.837-0.279,2.517-0.799L484.386,951.135z"/>
						</g>
					</g>
					<g>
						<path style="fill:#FFFFFF;" d="M527.157,930.68v5.753c-0.519-0.04-0.918-0.08-1.398-0.08c-3.435,0-5.713,1.877-5.713,5.993
							v10.147h-6.232V931h5.953v2.836C521.284,931.759,523.841,930.68,527.157,930.68"/>
					</g>
					<g>
						<path style="fill:#FFFFFF;" d="M528.954,949.257l2.197-4.874c2.357,1.718,5.873,2.916,9.229,2.916
							c3.836,0,5.393-1.278,5.393-2.996c0-5.233-16.26-1.638-16.26-12.025c0-4.754,3.835-8.709,11.785-8.709
							c3.516,0,7.112,0.839,9.708,2.477l-1.998,4.914c-2.597-1.478-5.273-2.197-7.75-2.197c-3.835,0-5.313,1.438-5.313,3.196
							c0,5.154,16.259,1.598,16.259,11.865c0,4.675-3.875,8.67-11.865,8.67C535.905,952.493,531.43,951.175,528.954,949.257"/>
					</g>
					<g>
						<path style="fill:#FFFFFF;" d="M577.131,943.185h-16.26c0.599,2.677,2.876,4.315,6.153,4.315c2.277,0,3.915-0.679,5.393-2.077
							l3.316,3.595c-1.998,2.278-4.994,3.476-8.869,3.476c-7.431,0-12.265-4.674-12.265-11.067c0-6.432,4.914-11.066,11.466-11.066
							c6.312,0,11.187,4.235,11.187,11.146C577.251,941.987,577.171,942.666,577.131,943.185 M560.791,939.55h10.587
							c-0.439-2.717-2.477-4.475-5.273-4.475C563.268,935.075,561.231,936.793,560.791,939.55"/>
					</g>
					<g>
						<path style="fill:#FFFFFF;" d="M602.337,943.185h-16.26c0.599,2.677,2.876,4.315,6.152,4.315c2.277,0,3.915-0.679,5.393-2.077
							l3.316,3.595c-1.998,2.278-4.994,3.476-8.869,3.476c-7.431,0-12.265-4.674-12.265-11.067c0-6.432,4.914-11.066,11.466-11.066
							c6.312,0,11.186,4.235,11.186,11.146C602.457,941.987,602.377,942.666,602.337,943.185 M585.997,939.55h10.587
							c-0.439-2.717-2.477-4.475-5.273-4.475C588.474,935.075,586.437,936.793,585.997,939.55"/>
					</g>
					<g>
						<polygon style="fill:#FFFFFF;" points="615.838,944.064 612.841,947.02 612.841,952.493 606.61,952.493 606.61,922.85 
							612.841,922.85 612.841,939.629 621.95,931 629.381,931 620.432,940.108 630.18,952.493 622.63,952.493 						"/>
					</g>
					<g>
						<path style="fill:#FFFFFF;" d="M514.371,955.416L514.371,955.416l-6.226-6.226c-0.947,1.107-2.075,2.054-3.339,2.796
							c-0.201,0.15-0.406,0.296-0.616,0.433l6.589,6.589c0.992,0.992,2.601,0.992,3.592,0
							C515.363,958.017,515.363,956.408,514.371,955.416"/>
					</g>
					<g>
						<path style="fill:#FFFFFF;" d="M499.965,929.04c0.48-0.377,1.077-0.612,1.735-0.612c0.091,0,0.181,0.005,0.27,0.013
							c-0.466-0.34-1.041-0.542-1.663-0.542c-0.859,0-1.619,0.392-2.137,0.998c-0.111,0-0.218,0.013-0.328,0.016
							c0.086-0.167,0.139-0.354,0.139-0.555c0-0.509-0.311-0.945-0.752-1.13c0.19,0.275,0.301,0.608,0.301,0.968
							c0,0.267-0.066,0.517-0.176,0.742c-6.119,0.437-10.95,5.527-10.95,11.757c0,6.516,5.283,11.799,11.799,11.799
							c6.517,0,11.8-5.283,11.8-11.799C510.004,934.777,505.644,929.892,499.965,929.04 M495.61,932.114
							c0.947,0,1.837,0.244,2.611,0.674c0.813-0.532,1.785-0.842,2.828-0.842c1.547,0,2.934,0.68,3.883,1.756
							c-0.948-0.826-2.186-1.328-3.541-1.328c-0.977,0-1.895,0.261-2.686,0.716c-0.172,0.1-0.34,0.208-0.499,0.326
							c-0.142-0.104-0.29-0.203-0.444-0.292c-0.803-0.476-1.741-0.749-2.743-0.749c-0.653,0-1.279,0.117-1.86,0.331
							C493.895,932.328,494.727,932.114,495.61,932.114 M503.858,941.785c0.25,0.664,0.394,1.38,0.394,2.131
							c0,3.34-2.707,6.047-6.047,6.047c-3.339,0-6.047-2.707-6.047-6.047c0-0.751,0.143-1.467,0.394-2.131
							c-1.35-0.831-2.253-2.317-2.253-4.019c0-2.607,2.114-4.72,4.72-4.72c1.23,0,2.346,0.474,3.186,1.244
							c0.84-0.77,1.956-1.244,3.186-1.244c2.607,0,4.72,2.113,4.72,4.72C506.111,939.467,505.208,940.954,503.858,941.785"/>
					</g>
					<g>
						<path style="fill:#FFFFFF;" d="M503.627,937.351c0,1.082-0.879,1.961-1.961,1.961c-1.082,0-1.961-0.879-1.961-1.961
							s0.879-1.961,1.961-1.961c0.22,0,0.428,0.037,0.625,0.102c-0.065,0.135-0.099,0.287-0.099,0.445
							c0,0.595,0.482,1.076,1.077,1.076c0.11,0,0.217-0.017,0.318-0.048C503.613,937.089,503.627,937.218,503.627,937.351"/>
					</g>
					<g>
						<path style="fill:#FFFFFF;" d="M496.201,937.351c0,0.818-0.665,1.482-1.483,1.482c-0.818,0-1.483-0.664-1.483-1.482
							s0.665-1.483,1.483-1.483c0.166,0,0.324,0.027,0.473,0.077c-0.049,0.102-0.075,0.217-0.075,0.337
							c0,0.449,0.364,0.814,0.814,0.814c0.083,0,0.164-0.013,0.241-0.036C496.191,937.153,496.201,937.251,496.201,937.351"/>
					</g>
					<g>
						<g>
							<g>
								<rect x="484.56" y="939.024" style="fill:#FFFFFF;" width="1.34" height="1.34"/>
							</g>
							<g>
								<rect x="510.51" y="939.024" style="fill:#FFFFFF;" width="1.34" height="1.34"/>
							</g>
							<g>
								<path style="fill:#FFFFFF;" d="M511.332,939.572h-0.304c0-7.07-5.752-12.823-12.823-12.823
									c-7.07,0-12.823,5.753-12.823,12.823h-0.305c0-3.506,1.365-6.803,3.845-9.282c2.479-2.48,5.776-3.845,9.282-3.845
									c3.507,0,6.803,1.365,9.283,3.845C509.966,932.769,511.332,936.065,511.332,939.572"/>
							</g>
						</g>
						<g>
							<rect x="497.534" y="925.927" style="fill:#FFFFFF;" width="1.34" height="1.34"/>
						</g>
						<g>
							<rect x="489.006" y="926.445" style="fill:#FFFFFF;" width="18.397" height="0.304"/>
						</g>
						<g>
							<path style="fill:#FFFFFF;" d="M489.494,926.658c0,0.235-0.191,0.427-0.427,0.427c-0.235,0-0.426-0.191-0.426-0.427
								s0.191-0.427,0.426-0.427C489.303,926.231,489.494,926.422,489.494,926.658"/>
						</g>
						<g>
							<path style="fill:#FFFFFF;" d="M507.829,926.658c0,0.235-0.191,0.427-0.427,0.427c-0.235,0-0.426-0.191-0.426-0.427
								s0.191-0.427,0.426-0.427C507.639,926.231,507.829,926.422,507.829,926.658"/>
						</g>
					</g>
				</g>
				<g>
					<path style="fill:#FFFFFF;" d="M640.109,951.171c0,3.395-5.146,3.395-5.146,0C634.963,947.779,640.109,947.779,640.109,951.171
						z"/>
				</g>
				<g>
					<g>
						<g>
							<path style="fill:#FFFFFF;" d="M307.849,936.236l3.859,13.253l4.038-13.253h4.823l-6.145,17.721h-5.073l-1.822-5.216
								l-1.572-5.896l-1.571,5.896l-1.822,5.216h-5.073l-6.18-17.721h4.858l4.038,13.253l3.822-13.253H307.849z"/>
						</g>
						<g>
							<path style="fill:#FFFFFF;" d="M340.449,936.236l3.859,13.253l4.038-13.253h4.823l-6.145,17.721h-5.073l-1.822-5.216
								l-1.571-5.896l-1.572,5.896l-1.822,5.216h-5.073l-6.18-17.721h4.858l4.038,13.253l3.822-13.253H340.449z"/>
						</g>
						<g>
							<path style="fill:#FFFFFF;" d="M373.048,936.236l3.859,13.253l4.038-13.253h4.823l-6.145,17.721h-5.073l-1.822-5.216
								l-1.572-5.896l-1.571,5.896l-1.822,5.216h-5.073l-6.18-17.721h4.858l4.038,13.253l3.822-13.253H373.048z"/>
						</g>
					</g>
					<g>
						<path style="fill:#FFFFFF;" d="M393.123,951.412c0,3.395-5.146,3.395-5.146,0C387.977,948.02,393.123,948.02,393.123,951.412z
							"/>
					</g>
					<g>
						<path style="fill:#FFFFFF;" d="M658.296,951.171c-2.036,2.001-4.177,2.787-6.787,2.787c-5.108,0-9.361-3.072-9.361-9.323
							c0-6.251,4.253-9.326,9.361-9.326c2.502,0,4.43,0.716,6.359,2.609l-2.752,2.894c-1.036-0.931-2.321-1.393-3.534-1.393
							c-2.929,0-5.073,2.144-5.073,5.216c0,3.357,2.286,5.143,5,5.143c1.393,0,2.787-0.393,3.857-1.463L658.296,951.171z"/>
					</g>
					<g>
						<path style="fill:#FFFFFF;" d="M678.097,944.777c0,5.073-3.465,9.181-9.181,9.181c-5.716,0-9.146-4.107-9.146-9.181
							c0-5.038,3.502-9.181,9.111-9.181S678.097,939.739,678.097,944.777z M664.128,944.777c0,2.679,1.609,5.181,4.788,5.181
							c3.179,0,4.788-2.502,4.788-5.181c0-2.644-1.859-5.216-4.788-5.216C665.772,939.561,664.128,942.133,664.128,944.777z"/>
					</g>
					<g>
						<path style="fill:#FFFFFF;" d="M692.828,953.958v-9.431c0-2.324-1.216-4.43-3.61-4.43c-2.356,0-3.75,2.106-3.75,4.43v9.431
							h-4.36v-17.649h4.038l0.323,2.144c0.928-1.786,2.964-2.429,4.643-2.429c2.109,0,4.218,0.858,5.216,3.287
							c1.574-2.502,3.61-3.217,5.896-3.217c5,0,7.467,3.075,7.467,8.36v9.504h-4.361v-9.504c0-2.321-0.963-4.288-3.322-4.288
							c-2.356,0-3.822,2.036-3.822,4.36v9.431H692.828z"/>
					</g>
				</g>
			</g>
		</g>
		<g style="opacity:0.61;">
			<g>
				<g>
					<path style="fill:#FFFFFF;" d="M708.973,859.493c-0.013-2.665-2.087-4.618-4.766-4.659c-2.011-0.031-1.81,0.261-1.815-1.887
						c-0.006-2.389-0.015-4.778,0.006-7.166c0.007-0.824-0.243-1.505-0.787-2.125c-5.098-5.81-10.184-11.63-15.281-17.441
						c-0.262-0.299-0.599-0.532-0.901-0.796c-13.528,0-27.055,0-40.583,0c-1.729,0.639-2.482,1.889-2.478,3.72
						c0.021,8.159,0.009,16.318,0.008,24.478c0,1.21-0.007,1.281-1.197,1.201c-3.258-0.221-5.477,2.147-5.436,5.426
						c0.096,7.568,0.028,15.137,0.031,22.706c0.001,3.44,1.887,5.32,5.333,5.331c1.267,0.004,1.268,0.004,1.268,1.306
						c0.001,4.831-0.002,9.662,0.002,14.493c0.002,2.595,1.262,3.855,3.85,3.855c17.446,0.001,34.891,0.001,52.337,0
						c2.543,0,3.822-1.268,3.824-3.799c0.005-4.912,0.001-9.823,0.003-14.735c0-1.115,0.005-1.112,1.131-1.121
						c0.589-0.005,1.177,0.017,1.761-0.127c2.169-0.535,3.68-2.273,3.689-4.503C709.007,875.597,709.011,867.545,708.973,859.493z
						 M647.034,828.716c11.619-0.001,23.237-0.001,34.856,0c1.193,0,1.206,0.015,1.207,1.222c0.001,4.884-0.002,9.767,0.002,14.651
						c0.001,1.765,0.543,2.305,2.307,2.306c4.159,0.003,8.318,0,12.477,0.003c0.997,0.001,1.044,0.046,1.046,1.052
						c0.006,1.932,0.005,3.864,0,5.796c-0.003,1.038-0.051,1.085-1.098,1.085c-8.479,0.002-16.958,0.001-25.438,0.001
						c-8.452,0-16.905,0-25.357,0c-1.198,0-1.202-0.003-1.202-1.221c-0.001-7.889-0.001-15.778,0-23.667
						C645.835,828.724,645.844,828.716,647.034,828.716z M697.728,903.645c-8.454,0.001-16.908,0.001-25.362,0.001
						c-8.427,0-16.854,0.001-25.281,0c-1.245,0-1.249-0.003-1.249-1.262c-0.001-4.348-0.003-8.696,0.001-13.043
						c0.001-1.01,0.051-1.059,1.041-1.059c16.989-0.002,33.977-0.002,50.966,0c1.041,0,1.086,0.044,1.087,1.094
						c0.003,4.348,0.003,8.696,0.001,13.043C698.931,903.634,698.92,903.645,697.728,903.645z"/>
				</g>
				<g>
					<g>
						<rect x="668.546" y="828.478" style="fill:#FFFFFF;" width="3.825" height="2.295"/>
					</g>
					<g>
						<rect x="664.722" y="830.773" style="fill:#FFFFFF;" width="3.825" height="2.295"/>
					</g>
					<g>
						<rect x="668.546" y="833.068" style="fill:#FFFFFF;" width="3.825" height="2.295"/>
					</g>
					<g>
						<rect x="664.722" y="835.363" style="fill:#FFFFFF;" width="3.825" height="2.295"/>
					</g>
					<g>
						<rect x="668.546" y="837.658" style="fill:#FFFFFF;" width="3.825" height="2.295"/>
					</g>
					<g>
						<rect x="664.722" y="839.953" style="fill:#FFFFFF;" width="3.825" height="2.295"/>
					</g>
					<g>
						<rect x="668.546" y="842.247" style="fill:#FFFFFF;" width="3.825" height="2.295"/>
					</g>
					<g>
						<rect x="664.722" y="844.542" style="fill:#FFFFFF;" width="3.825" height="2.295"/>
					</g>
					<g>
						<rect x="668.546" y="846.837" style="fill:#FFFFFF;" width="3.825" height="2.295"/>
					</g>
					<g>
						<rect x="664.722" y="849.132" style="fill:#FFFFFF;" width="3.825" height="2.295"/>
					</g>
					<g>
						<rect x="668.546" y="851.427" style="fill:#FFFFFF;" width="3.825" height="2.295"/>
					</g>
					<g>
						<rect x="664.722" y="853.722" style="fill:#FFFFFF;" width="3.825" height="2.295"/>
					</g>
				</g>
			</g>
			<g>
				<path style="fill:#FFFFFF;" d="M364.231,859.493c-0.013-2.665-2.087-4.618-4.766-4.659c-2.011-0.031-1.81,0.261-1.815-1.887
					c-0.006-2.389-0.015-4.778,0.006-7.166c0.007-0.824-0.243-1.505-0.787-2.125c-5.098-5.81-10.184-11.63-15.281-17.441
					c-0.262-0.299-0.599-0.532-0.901-0.796c-13.528,0-27.055,0-40.583,0c-1.729,0.639-2.482,1.889-2.478,3.72
					c0.021,8.159,0.009,16.318,0.008,24.478c0,1.21-0.007,1.281-1.197,1.201c-3.258-0.221-5.477,2.147-5.436,5.426
					c0.096,7.568,0.028,15.137,0.031,22.706c0.001,3.44,1.887,5.32,5.333,5.331c1.267,0.004,1.268,0.004,1.268,1.306
					c0.001,4.831-0.002,9.662,0.002,14.493c0.002,2.595,1.262,3.855,3.85,3.855c17.446,0.001,34.891,0.001,52.337,0
					c2.543,0,3.822-1.268,3.824-3.799c0.005-4.912,0.001-9.823,0.003-14.735c0-1.115,0.004-1.112,1.131-1.121
					c0.589-0.005,1.177,0.017,1.761-0.127c2.169-0.535,3.68-2.273,3.689-4.503C364.264,875.597,364.269,867.545,364.231,859.493z
					 M302.292,828.716c11.619-0.001,23.237-0.001,34.856,0c1.192,0,1.206,0.015,1.207,1.222c0.001,4.884-0.001,9.767,0.002,14.651
					c0.001,1.765,0.543,2.305,2.307,2.306c4.159,0.003,8.318,0,12.477,0.003c0.997,0.001,1.044,0.046,1.046,1.052
					c0.006,1.932,0.005,3.864,0,5.796c-0.003,1.038-0.051,1.085-1.098,1.085c-8.479,0.002-16.958,0.001-25.438,0.001
					c-8.452,0-16.905,0-25.357,0c-1.198,0-1.202-0.003-1.202-1.221c-0.001-7.889-0.001-15.778,0-23.667
					C301.093,828.724,301.102,828.716,302.292,828.716z M352.985,903.645c-8.454,0.001-16.908,0.001-25.362,0.001
					c-8.427,0-16.854,0.001-25.281,0c-1.245,0-1.249-0.003-1.249-1.262c-0.001-4.348-0.003-8.696,0.001-13.043
					c0.001-1.01,0.051-1.059,1.041-1.059c16.989-0.002,33.977-0.002,50.966,0c1.041,0,1.086,0.044,1.087,1.094
					c0.003,4.348,0.003,8.696,0.001,13.043C354.188,903.634,354.177,903.645,352.985,903.645z"/>
			</g>
			<g>
				<path style="fill:#FFFFFF;" d="M303.581,879.891v-17.193h6.051c0.816,0,1.581,0.132,2.293,0.396
					c0.712,0.264,1.333,0.636,1.861,1.117c0.527,0.48,0.944,1.053,1.248,1.717c0.304,0.665,0.456,1.397,0.456,2.198
					c0,0.816-0.152,1.557-0.456,2.221s-0.721,1.236-1.248,1.717c-0.529,0.48-1.149,0.852-1.861,1.117
					c-0.713,0.264-1.477,0.396-2.293,0.396h-2.809v6.315H303.581z M309.68,870.503c0.848,0,1.489-0.241,1.921-0.721
					c0.432-0.48,0.648-1.032,0.648-1.656c0-0.304-0.052-0.601-0.156-0.889c-0.105-0.288-0.264-0.54-0.48-0.756
					c-0.216-0.217-0.484-0.388-0.805-0.516c-0.32-0.129-0.696-0.193-1.128-0.193h-2.857v4.731H309.68z"/>
				<path style="fill:#FFFFFF;" d="M317.796,862.699h3.77l6.916,11.526h0.191l-0.191-3.314v-8.212h3.217v17.193h-3.409l-7.3-12.174
					h-0.191l0.191,3.314v8.86h-3.193V862.699z"/>
				<path style="fill:#FFFFFF;" d="M343.08,870.454h8.429c0.048,0.193,0.087,0.425,0.12,0.697c0.031,0.272,0.048,0.544,0.048,0.816
					c0,1.104-0.167,2.145-0.504,3.121c-0.336,0.977-0.865,1.849-1.585,2.618c-0.768,0.817-1.69,1.449-2.761,1.897
					c-1.073,0.448-2.298,0.672-3.674,0.672c-1.249,0-2.426-0.224-3.53-0.672c-1.104-0.447-2.065-1.072-2.881-1.873
					c-0.816-0.8-1.465-1.749-1.945-2.845c-0.48-1.097-0.72-2.293-0.72-3.59c0-1.296,0.24-2.493,0.72-3.589s1.129-2.045,1.945-2.845
					c0.816-0.8,1.777-1.425,2.881-1.873c1.104-0.448,2.281-0.672,3.53-0.672c1.392,0,2.637,0.24,3.734,0.72
					c1.097,0.48,2.036,1.144,2.821,1.993l-2.232,2.185c-0.562-0.592-1.185-1.044-1.874-1.357s-1.513-0.468-2.473-0.468
					c-0.786,0-1.53,0.14-2.234,0.421c-0.705,0.28-1.321,0.676-1.85,1.188c-0.527,0.512-0.949,1.133-1.259,1.861
					c-0.312,0.728-0.469,1.541-0.469,2.437c0,0.897,0.157,1.709,0.469,2.438c0.311,0.728,0.735,1.349,1.271,1.861
					c0.536,0.512,1.156,0.909,1.862,1.188c0.704,0.281,1.457,0.421,2.258,0.421c0.911,0,1.684-0.132,2.317-0.396
					c0.632-0.264,1.171-0.604,1.62-1.021c0.321-0.288,0.598-0.652,0.829-1.092s0.412-0.932,0.541-1.477h-5.404V870.454z"/>
			</g>
			<g>
				<path style="fill:#FFFFFF;" d="M443.437,859.493c-0.013-2.665-2.087-4.618-4.766-4.659c-2.011-0.031-1.81,0.261-1.815-1.887
					c-0.006-2.389-0.015-4.778,0.006-7.166c0.007-0.824-0.243-1.505-0.787-2.125c-5.098-5.81-10.184-11.63-15.281-17.441
					c-0.262-0.299-0.599-0.532-0.901-0.796c-13.528,0-27.055,0-40.583,0c-1.729,0.639-2.482,1.889-2.478,3.72
					c0.021,8.159,0.009,16.318,0.008,24.478c0,1.21-0.007,1.281-1.197,1.201c-3.258-0.221-5.477,2.147-5.436,5.426
					c0.096,7.568,0.028,15.137,0.031,22.706c0.001,3.44,1.887,5.32,5.333,5.331c1.267,0.004,1.268,0.004,1.268,1.306
					c0.001,4.831-0.002,9.662,0.002,14.493c0.002,2.595,1.262,3.855,3.85,3.855c17.446,0.001,34.891,0.001,52.337,0
					c2.543,0,3.822-1.268,3.824-3.799c0.005-4.912,0.001-9.823,0.003-14.735c0-1.115,0.004-1.112,1.131-1.121
					c0.589-0.005,1.177,0.017,1.761-0.127c2.169-0.535,3.68-2.273,3.689-4.503C443.47,875.597,443.475,867.545,443.437,859.493z
					 M381.498,828.716c11.619-0.001,23.237-0.001,34.856,0c1.192,0,1.206,0.015,1.207,1.222c0.001,4.884-0.001,9.767,0.002,14.651
					c0.001,1.765,0.543,2.305,2.307,2.306c4.159,0.003,8.318,0,12.477,0.003c0.997,0.001,1.044,0.046,1.046,1.052
					c0.006,1.932,0.005,3.864,0,5.796c-0.003,1.038-0.051,1.085-1.098,1.085c-8.479,0.002-16.958,0.001-25.438,0.001
					c-8.452,0-16.905,0-25.357,0c-1.198,0-1.202-0.003-1.202-1.221c-0.001-7.889-0.001-15.778,0-23.667
					C380.299,828.724,380.308,828.716,381.498,828.716z M432.192,903.645c-8.454,0.001-16.908,0.001-25.362,0.001
					c-8.427,0-16.854,0.001-25.281,0c-1.245,0-1.249-0.003-1.249-1.262c-0.001-4.348-0.002-8.696,0.001-13.043
					c0.001-1.01,0.051-1.059,1.041-1.059c16.989-0.002,33.977-0.002,50.966,0c1.041,0,1.086,0.044,1.087,1.094
					c0.003,4.348,0.003,8.696,0.001,13.043C433.394,903.634,433.384,903.645,432.192,903.645z"/>
			</g>
			<g>
				<path style="fill:#FFFFFF;" d="M402.272,862.699h3.698l6.46,17.193h-3.578l-1.416-4.106h-6.628l-1.417,4.106h-3.578
					L402.272,862.699z M406.379,872.808l-1.537-4.298l-0.625-2.089h-0.192l-0.625,2.089l-1.537,4.298H406.379z"/>
				<path style="fill:#FFFFFF;" d="M415.815,866.541c-0.273,0-0.533-0.052-0.781-0.156c-0.248-0.104-0.465-0.248-0.648-0.432
					c-0.184-0.184-0.328-0.396-0.432-0.636c-0.105-0.241-0.156-0.504-0.156-0.793s0.052-0.552,0.156-0.793
					c0.104-0.24,0.248-0.452,0.432-0.636c0.184-0.184,0.4-0.328,0.648-0.432c0.248-0.104,0.508-0.156,0.781-0.156
					c0.56,0,1.041,0.196,1.441,0.588c0.4,0.393,0.601,0.869,0.601,1.429c0,0.56-0.201,1.037-0.601,1.428
					C416.856,866.345,416.375,866.541,415.815,866.541z M414.255,879.891v-11.766h3.145v11.766H414.255z"/>
			</g>
			<g>
				<path style="fill:#FFFFFF;" d="M524.043,859.493c-0.013-2.665-2.087-4.618-4.766-4.659c-2.011-0.031-1.81,0.261-1.815-1.887
					c-0.006-2.389-0.015-4.778,0.006-7.166c0.007-0.824-0.243-1.505-0.787-2.125c-5.098-5.81-10.184-11.63-15.281-17.441
					c-0.262-0.299-0.599-0.532-0.901-0.796c-13.528,0-27.055,0-40.583,0c-1.729,0.639-2.482,1.889-2.478,3.72
					c0.021,8.159,0.009,16.318,0.008,24.478c0,1.21-0.007,1.281-1.197,1.201c-3.258-0.221-5.477,2.147-5.436,5.426
					c0.096,7.568,0.028,15.137,0.031,22.706c0.001,3.44,1.887,5.32,5.333,5.331c1.267,0.004,1.268,0.004,1.268,1.306
					c0.001,4.831-0.002,9.662,0.002,14.493c0.002,2.595,1.262,3.855,3.85,3.855c17.446,0.001,34.891,0.001,52.337,0
					c2.543,0,3.822-1.268,3.824-3.799c0.005-4.912,0.001-9.823,0.003-14.735c0-1.115,0.004-1.112,1.131-1.121
					c0.589-0.005,1.177,0.017,1.761-0.127c2.169-0.535,3.68-2.273,3.689-4.503C524.076,875.597,524.081,867.545,524.043,859.493z
					 M462.104,828.716c11.619-0.001,23.237-0.001,34.856,0c1.192,0,1.206,0.015,1.207,1.222c0.001,4.884-0.001,9.767,0.002,14.651
					c0.001,1.765,0.543,2.305,2.307,2.306c4.159,0.003,8.318,0,12.477,0.003c0.997,0.001,1.044,0.046,1.046,1.052
					c0.006,1.932,0.005,3.864,0,5.796c-0.003,1.038-0.051,1.085-1.098,1.085c-8.479,0.002-16.958,0.001-25.438,0.001
					c-8.452,0-16.905,0-25.357,0c-1.198,0-1.202-0.003-1.202-1.221c-0.001-7.889-0.001-15.778,0-23.667
					C460.905,828.724,460.914,828.716,462.104,828.716z M512.798,903.645c-8.454,0.001-16.908,0.001-25.362,0.001
					c-8.427,0-16.854,0.001-25.281,0c-1.245,0-1.249-0.003-1.249-1.262c-0.001-4.348-0.002-8.696,0.001-13.043
					c0.001-1.01,0.051-1.059,1.041-1.059c16.989-0.002,33.977-0.002,50.966,0c1.041,0,1.086,0.044,1.087,1.094
					c0.003,4.348,0.003,8.696,0.001,13.043C514,903.634,513.989,903.645,512.798,903.645z"/>
			</g>
			<g>
				<path style="fill:#FFFFFF;" d="M470.308,880.275c-0.737,0-1.441-0.104-2.113-0.312c-0.672-0.208-1.289-0.52-1.849-0.936
					c-0.56-0.416-1.048-0.925-1.464-1.525c-0.417-0.601-0.745-1.301-0.985-2.101l3.049-1.2c0.224,0.864,0.616,1.581,1.177,2.149
					s1.297,0.852,2.209,0.852c0.336,0,0.66-0.044,0.973-0.132c0.312-0.087,0.592-0.216,0.84-0.384
					c0.248-0.168,0.444-0.38,0.589-0.636c0.144-0.256,0.216-0.552,0.216-0.888c0-0.32-0.056-0.608-0.168-0.865
					c-0.112-0.255-0.3-0.495-0.564-0.72c-0.264-0.224-0.609-0.44-1.033-0.648c-0.424-0.208-0.948-0.424-1.572-0.648l-1.056-0.384
					c-0.465-0.16-0.933-0.376-1.405-0.648c-0.472-0.272-0.9-0.6-1.284-0.985c-0.385-0.384-0.701-0.836-0.949-1.357
					c-0.249-0.52-0.372-1.108-0.372-1.765c0-0.672,0.132-1.301,0.396-1.885c0.264-0.584,0.64-1.096,1.129-1.537
					c0.488-0.44,1.072-0.784,1.753-1.032c0.681-0.248,1.437-0.372,2.269-0.372c0.864,0,1.612,0.116,2.245,0.348
					c0.633,0.232,1.168,0.528,1.609,0.888c0.44,0.36,0.796,0.757,1.068,1.188c0.272,0.433,0.472,0.84,0.601,1.225l-2.857,1.2
					c-0.161-0.48-0.453-0.913-0.876-1.297c-0.425-0.384-1.005-0.576-1.741-0.576c-0.704,0-1.289,0.164-1.753,0.492
					c-0.465,0.329-0.697,0.757-0.697,1.285c0,0.512,0.224,0.949,0.672,1.309c0.448,0.36,1.161,0.708,2.137,1.044l1.081,0.36
					c0.688,0.241,1.316,0.517,1.885,0.828c0.568,0.312,1.056,0.684,1.465,1.117c0.408,0.433,0.72,0.925,0.936,1.477
					c0.217,0.552,0.324,1.189,0.324,1.909c0,0.897-0.18,1.669-0.54,2.317c-0.36,0.648-0.82,1.181-1.38,1.597
					c-0.561,0.416-1.193,0.728-1.897,0.936C471.668,880.172,470.98,880.275,470.308,880.275z"/>
				<path style="fill:#FFFFFF;" d="M477.175,862.699h3.506l3.554,10.349l0.625,2.209h0.192l0.672-2.209l3.698-10.349h3.506
					l-6.268,17.193h-3.409L477.175,862.699z"/>
				<path style="fill:#FFFFFF;" d="M502.388,870.454h8.428c0.048,0.193,0.088,0.425,0.12,0.697c0.033,0.272,0.049,0.544,0.049,0.816
					c0,1.104-0.169,2.145-0.505,3.121c-0.336,0.977-0.864,1.849-1.585,2.618c-0.768,0.817-1.688,1.449-2.761,1.897
					c-1.073,0.448-2.298,0.672-3.674,0.672c-1.249,0-2.425-0.224-3.529-0.672c-1.105-0.447-2.066-1.072-2.882-1.873
					c-0.816-0.8-1.465-1.749-1.945-2.845c-0.48-1.097-0.72-2.293-0.72-3.59c0-1.296,0.241-2.493,0.72-3.589
					c0.48-1.097,1.129-2.045,1.945-2.845c0.816-0.8,1.777-1.425,2.882-1.873c1.104-0.448,2.28-0.672,3.529-0.672
					c1.392,0,2.637,0.24,3.734,0.72c1.097,0.48,2.038,1.144,2.822,1.993l-2.234,2.185c-0.56-0.592-1.185-1.044-1.874-1.357
					c-0.687-0.312-1.512-0.468-2.473-0.468c-0.784,0-1.528,0.14-2.234,0.421c-0.704,0.28-1.321,0.676-1.848,1.188
					c-0.528,0.512-0.949,1.133-1.261,1.861c-0.312,0.728-0.468,1.541-0.468,2.437c0,0.897,0.156,1.709,0.468,2.438
					c0.312,0.728,0.737,1.349,1.273,1.861c0.536,0.512,1.156,0.909,1.86,1.188c0.705,0.281,1.457,0.421,2.258,0.421
					c0.913,0,1.685-0.132,2.317-0.396c0.632-0.264,1.173-0.604,1.621-1.021c0.32-0.288,0.596-0.652,0.828-1.092
					c0.233-0.44,0.412-0.932,0.541-1.477h-5.402V870.454z"/>
			</g>
			<g>
				<path style="fill:#FFFFFF;" d="M602.976,859.493c-0.013-2.665-2.087-4.618-4.766-4.659c-2.011-0.031-1.81,0.261-1.815-1.887
					c-0.006-2.389-0.015-4.778,0.006-7.166c0.007-0.824-0.243-1.505-0.787-2.125c-5.098-5.81-10.184-11.63-15.281-17.441
					c-0.262-0.299-0.599-0.532-0.901-0.796c-13.528,0-27.055,0-40.583,0c-1.729,0.639-2.482,1.889-2.478,3.72
					c0.021,8.159,0.009,16.318,0.008,24.478c0,1.21-0.007,1.281-1.197,1.201c-3.258-0.221-5.477,2.147-5.436,5.426
					c0.096,7.568,0.028,15.137,0.031,22.706c0.001,3.44,1.887,5.32,5.333,5.331c1.267,0.004,1.268,0.004,1.268,1.306
					c0.001,4.831-0.002,9.662,0.002,14.493c0.002,2.595,1.262,3.855,3.85,3.855c17.446,0.001,34.891,0.001,52.337,0
					c2.543,0,3.822-1.268,3.824-3.799c0.005-4.912,0.001-9.823,0.003-14.735c0-1.115,0.005-1.112,1.131-1.121
					c0.589-0.005,1.178,0.017,1.761-0.127c2.169-0.535,3.68-2.273,3.689-4.503C603.01,875.597,603.015,867.545,602.976,859.493z
					 M541.037,828.716c11.619-0.001,23.237-0.001,34.856,0c1.193,0,1.206,0.015,1.207,1.222c0.001,4.884-0.002,9.767,0.002,14.651
					c0.001,1.765,0.543,2.305,2.307,2.306c4.159,0.003,8.318,0,12.477,0.003c0.997,0.001,1.044,0.046,1.046,1.052
					c0.006,1.932,0.005,3.864,0,5.796c-0.003,1.038-0.051,1.085-1.098,1.085c-8.479,0.002-16.958,0.001-25.438,0.001
					c-8.452,0-16.905,0-25.357,0c-1.198,0-1.202-0.003-1.202-1.221c-0.001-7.889-0.001-15.778,0-23.667
					C539.838,828.724,539.847,828.716,541.037,828.716z M591.731,903.645c-8.454,0.001-16.908,0.001-25.362,0.001
					c-8.427,0-16.854,0.001-25.281,0c-1.245,0-1.249-0.003-1.249-1.262c-0.001-4.348-0.003-8.696,0.001-13.043
					c0.001-1.01,0.051-1.059,1.041-1.059c16.989-0.002,33.977-0.002,50.966,0c1.041,0,1.086,0.044,1.087,1.094
					c0.003,4.348,0.003,8.696,0.001,13.043C592.934,903.634,592.923,903.645,591.731,903.645z"/>
			</g>
			<g>
				<path style="fill:#FFFFFF;" d="M549.998,865.772v3.986h6.891v3.074h-6.891v3.986h7.659v3.073h-10.901v-17.193h10.901v3.073
					H549.998z"/>
				<path style="fill:#FFFFFF;" d="M560.635,879.891v-17.193h6.051c0.816,0,1.581,0.132,2.293,0.396
					c0.712,0.264,1.333,0.636,1.861,1.117c0.528,0.48,0.944,1.053,1.249,1.717c0.304,0.665,0.456,1.397,0.456,2.198
					c0,0.816-0.152,1.557-0.456,2.221c-0.305,0.664-0.721,1.236-1.249,1.717c-0.528,0.48-1.149,0.852-1.861,1.117
					c-0.713,0.264-1.477,0.396-2.293,0.396h-2.809v6.315H560.635z M566.735,870.503c0.848,0,1.489-0.241,1.921-0.721
					c0.432-0.48,0.648-1.032,0.648-1.656c0-0.304-0.052-0.601-0.156-0.889c-0.105-0.288-0.264-0.54-0.48-0.756
					c-0.216-0.217-0.484-0.388-0.805-0.516c-0.32-0.129-0.696-0.193-1.128-0.193h-2.857v4.731H566.735z"/>
				<path style="fill:#FFFFFF;" d="M580.109,880.275c-0.737,0-1.441-0.104-2.113-0.312c-0.672-0.208-1.289-0.52-1.849-0.936
					c-0.56-0.416-1.049-0.925-1.465-1.525c-0.416-0.601-0.744-1.301-0.985-2.101l3.049-1.2c0.224,0.864,0.616,1.581,1.177,2.149
					c0.56,0.568,1.296,0.852,2.209,0.852c0.336,0,0.66-0.044,0.973-0.132c0.312-0.087,0.592-0.216,0.84-0.384
					c0.248-0.168,0.444-0.38,0.588-0.636c0.144-0.256,0.217-0.552,0.217-0.888c0-0.32-0.057-0.608-0.168-0.865
					c-0.112-0.255-0.3-0.495-0.565-0.72c-0.264-0.224-0.608-0.44-1.032-0.648c-0.424-0.208-0.949-0.424-1.573-0.648l-1.056-0.384
					c-0.465-0.16-0.932-0.376-1.404-0.648c-0.473-0.272-0.901-0.6-1.285-0.985c-0.384-0.384-0.701-0.836-0.949-1.357
					c-0.248-0.52-0.372-1.108-0.372-1.765c0-0.672,0.132-1.301,0.396-1.885c0.264-0.584,0.64-1.096,1.129-1.537
					c0.489-0.44,1.073-0.784,1.753-1.032c0.68-0.248,1.437-0.372,2.269-0.372c0.865,0,1.613,0.116,2.246,0.348
					c0.632,0.232,1.168,0.528,1.609,0.888c0.44,0.36,0.796,0.757,1.068,1.188c0.272,0.433,0.472,0.84,0.601,1.225l-2.857,1.2
					c-0.161-0.48-0.453-0.913-0.877-1.297s-1.005-0.576-1.741-0.576c-0.705,0-1.289,0.164-1.753,0.492
					c-0.465,0.329-0.696,0.757-0.696,1.285c0,0.512,0.224,0.949,0.672,1.309c0.448,0.36,1.16,0.708,2.137,1.044l1.08,0.36
					c0.689,0.241,1.317,0.517,1.885,0.828c0.568,0.312,1.056,0.684,1.465,1.117c0.408,0.433,0.72,0.925,0.936,1.477
					c0.216,0.552,0.324,1.189,0.324,1.909c0,0.897-0.18,1.669-0.54,2.317c-0.36,0.648-0.821,1.181-1.38,1.597
					c-0.561,0.416-1.193,0.728-1.897,0.936C581.47,880.172,580.782,880.275,580.109,880.275z"/>
			</g>
			<g>
				<path style="fill:#FFFFFF;" d="M655.431,876.625l8.716-10.854h-8.332v-3.073h12.103v3.266l-8.621,10.854h8.716v3.073h-12.582
					V876.625z"/>
				<path style="fill:#FFFFFF;" d="M670.702,862.699h3.242v17.193h-3.242V862.699z"/>
				<path style="fill:#FFFFFF;" d="M677.402,879.891v-17.193h6.051c0.817,0,1.581,0.132,2.293,0.396
					c0.712,0.264,1.333,0.636,1.861,1.117s0.944,1.053,1.249,1.717c0.304,0.665,0.456,1.397,0.456,2.198
					c0,0.816-0.152,1.557-0.456,2.221c-0.305,0.664-0.721,1.236-1.249,1.717s-1.149,0.852-1.861,1.117
					c-0.713,0.264-1.477,0.396-2.293,0.396h-2.809v6.315H677.402z M683.501,870.503c0.848,0,1.489-0.241,1.921-0.721
					c0.433-0.48,0.648-1.032,0.648-1.656c0-0.304-0.052-0.601-0.156-0.889c-0.105-0.288-0.264-0.54-0.48-0.756
					c-0.216-0.217-0.484-0.388-0.805-0.516c-0.32-0.129-0.696-0.193-1.128-0.193h-2.857v4.731H683.501z"/>
			</g>
		</g>
		<g style="opacity:0.61;">
			<path style="fill:#FFFFFF;" d="M609.144,863.785h19.739v4.881h-19.739V863.785z M609.144,872.201h19.739v4.884h-19.739V872.201z"
				/>
		</g>
	</g>
	<g style="opacity:0.61;">
		<path style="fill:#FFFFFF;" d="M297,963.076h3.498c2.75,0,4.603,1.768,4.603,4.297s-1.854,4.296-4.603,4.296H297V963.076z
			 M300.449,970.883c2.283,0,3.756-1.448,3.756-3.51s-1.473-3.511-3.756-3.511h-2.541v7.021H300.449z"/>
		<path style="fill:#FFFFFF;" d="M315.251,967.373c0-2.504,1.915-4.37,4.517-4.37c2.577,0,4.505,1.853,4.505,4.37
			c0,2.516-1.927,4.369-4.505,4.369C317.166,971.742,315.251,969.877,315.251,967.373z M323.365,967.373
			c0-2.05-1.534-3.56-3.596-3.56c-2.075,0-3.621,1.51-3.621,3.56c0,2.049,1.546,3.559,3.621,3.559
			C321.831,970.932,323.365,969.422,323.365,967.373z"/>
		<path style="fill:#FFFFFF;" d="M346.724,963.076l-2.897,8.593h-0.957l-2.516-7.328l-2.529,7.328h-0.945l-2.897-8.593h0.933
			l2.479,7.389l2.566-7.389h0.847l2.529,7.426l2.516-7.426H346.724z"/>
		<path style="fill:#FFFFFF;" d="M364.435,963.076v8.593h-0.749l-5.524-6.972v6.972h-0.908v-8.593h0.749l5.536,6.973v-6.973H364.435
			z"/>
		<path style="fill:#FFFFFF;" d="M376.108,963.076h0.908v7.807h4.812v0.786h-5.72V963.076z"/>
		<path style="fill:#FFFFFF;" d="M391.279,967.373c0-2.504,1.915-4.37,4.517-4.37c2.577,0,4.505,1.853,4.505,4.37
			c0,2.516-1.927,4.369-4.505,4.369C393.194,971.742,391.279,969.877,391.279,967.373z M399.392,967.373
			c0-2.05-1.534-3.56-3.596-3.56c-2.075,0-3.621,1.51-3.621,3.56c0,2.049,1.546,3.559,3.621,3.559
			C397.858,970.932,399.392,969.422,399.392,967.373z"/>
		<path style="fill:#FFFFFF;" d="M416.478,969.374h-4.787l-1.031,2.295h-0.945l3.928-8.593h0.896l3.928,8.593h-0.957
			L416.478,969.374z M416.147,968.637l-2.062-4.615l-2.062,4.615H416.147z"/>
		<path style="fill:#FFFFFF;" d="M428.765,963.076h3.498c2.75,0,4.603,1.768,4.603,4.297s-1.854,4.296-4.603,4.296h-3.498V963.076z
			 M432.214,970.883c2.283,0,3.756-1.448,3.756-3.51s-1.473-3.511-3.756-3.511h-2.541v7.021H432.214z"/>
		<path style="fill:#FFFFFF;" d="M465.256,969.374h-4.787l-1.031,2.295h-0.945l3.928-8.593h0.896l3.928,8.593h-0.957
			L465.256,969.374z M464.925,968.637l-2.062-4.615l-2.062,4.615H464.925z"/>
		<path style="fill:#FFFFFF;" d="M477.543,963.076h0.908v7.807h4.812v0.786h-5.72V963.076z"/>
		<path style="fill:#FFFFFF;" d="M493.647,963.076h0.908v7.807h4.812v0.786h-5.72V963.076z"/>
		<path style="fill:#FFFFFF;" d="M522.749,963.862v3.376h4.443v0.786h-4.443v3.646h-0.909v-8.593h5.891v0.786H522.749z"/>
		<path style="fill:#FFFFFF;" d="M538.485,963.076h0.909v8.593h-0.909V963.076z"/>
		<path style="fill:#FFFFFF;" d="M551.067,963.076h0.909v7.807h4.811v0.786h-5.72V963.076z"/>
		<path style="fill:#FFFFFF;" d="M573.246,970.883v0.786h-6.076v-8.593h5.891v0.786h-4.983v3.056h4.443v0.774h-4.443v3.191H573.246z
			"/>
		<path style="fill:#FFFFFF;" d="M597.255,963.862v3.376h4.443v0.786h-4.443v3.646h-0.909v-8.593h5.891v0.786H597.255z"/>
		<path style="fill:#FFFFFF;" d="M612.119,967.373c0-2.504,1.915-4.37,4.517-4.37c2.577,0,4.505,1.853,4.505,4.37
			c0,2.516-1.927,4.369-4.505,4.369C614.034,971.742,612.119,969.877,612.119,967.373z M620.232,967.373
			c0-2.05-1.534-3.56-3.596-3.56c-2.075,0-3.622,1.51-3.622,3.56c0,2.049,1.547,3.559,3.622,3.559
			C618.698,970.932,620.232,969.422,620.232,967.373z"/>
		<path style="fill:#FFFFFF;" d="M637.919,971.669l-1.963-2.762c-0.222,0.024-0.442,0.037-0.688,0.037h-2.307v2.725h-0.909v-8.593
			h3.216c2.185,0,3.511,1.105,3.511,2.946c0,1.351-0.712,2.295-1.964,2.7l2.099,2.946H637.919z M637.871,966.022
			c0-1.375-0.909-2.161-2.627-2.161h-2.283v4.309h2.283C636.962,968.17,637.871,967.373,637.871,966.022z"/>
		<path style="fill:#FFFFFF;" d="M658.724,963.076v8.593h-0.871v-6.874l-3.376,5.782h-0.429l-3.376-5.745v6.837h-0.872v-8.593h0.749
			l3.732,6.371l3.695-6.371H658.724z"/>
		<path style="fill:#FFFFFF;" d="M675.787,969.374h-4.788l-1.031,2.295h-0.946l3.928-8.593h0.896l3.928,8.593h-0.957
			L675.787,969.374z M675.455,968.637l-2.062-4.615l-2.062,4.615H675.455z"/>
		<path style="fill:#FFFFFF;" d="M689.312,963.862h-3.02v-0.786h6.948v0.786h-3.02v7.807h-0.908V963.862z"/>
		<path style="fill:#FFFFFF;" d="M702.605,970.626l0.356-0.7c0.614,0.601,1.706,1.043,2.835,1.043c1.608,0,2.308-0.675,2.308-1.522
			c0-2.357-5.29-0.908-5.29-4.087c0-1.265,0.982-2.357,3.167-2.357c0.97,0,1.976,0.282,2.664,0.761l-0.307,0.724
			c-0.737-0.479-1.596-0.712-2.357-0.712c-1.571,0-2.271,0.7-2.271,1.559c0,2.357,5.29,0.933,5.29,4.063
			c0,1.265-1.006,2.344-3.204,2.344C704.508,971.742,703.243,971.288,702.605,970.626z"/>
	</g>
</g>
<g>
</g>
<g>
	<path style="fill:#C3161C;" d="M780.469,523.605C780.469,679.566,654.035,806,498.076,806
		c-155.96,0-282.382-126.434-282.382-282.395c0-155.947,126.422-282.381,282.382-282.381
		C654.035,241.223,780.469,367.658,780.469,523.605z"/>
	<path style="fill:none;stroke:#C3161C;stroke-width:10.0994;" d="M780.469,523.605C780.469,679.566,654.035,806,498.076,806
		c-155.96,0-282.382-126.434-282.382-282.395c0-155.947,126.422-282.381,282.382-282.381
		C654.035,241.223,780.469,367.658,780.469,523.605z"/>
	<path style="fill:#D2A709;" d="M780.469,523.605C780.469,679.566,654.035,806,498.076,806
		c-155.96,0-282.382-126.434-282.382-282.395c0-155.947,126.422-282.381,282.382-282.381
		C654.035,241.223,780.469,367.658,780.469,523.605z"/>
	<path style="fill:none;stroke:#231F20;stroke-width:4.0397;" d="M780.469,523.605C780.469,679.566,654.035,806,498.076,806
		c-155.96,0-282.382-126.434-282.382-282.395c0-155.947,126.422-282.381,282.382-282.381
		C654.035,241.223,780.469,367.658,780.469,523.605z"/>
	<path style="fill:#231F20;" d="M379.298,343.955l233.102,1.483v-63.839c-2.971-11.881-29.696-20.785-29.696-20.785v-47.511
		c0,0-8.904-19.303-87.593-19.303c-78.695,0-84.629,20.785-84.629,20.785v43.065c0,0-25.243,5.929-31.184,17.809V343.955z"/>
	<path style="fill:none;stroke:#C3161C;stroke-width:4.0397;" d="M379.298,343.955l233.102,1.483v-63.839
		c-2.971-11.881-29.696-20.785-29.696-20.785v-47.511c0,0-8.904-19.303-87.593-19.303c-78.695,0-84.629,20.785-84.629,20.785v43.065
		c0,0-25.243,5.929-31.184,17.809V343.955z"/>
	<path style="fill:#C96C18;" d="M719.496,510.248c0,122.299-99.123,221.438-221.421,221.438
		c-122.293,0-221.416-99.139-221.416-221.438c0-122.28,99.123-221.42,221.416-221.42
		C620.373,288.828,719.496,387.968,719.496,510.248z"/>
	<path style="fill:none;stroke:#231F20;stroke-width:4.0397;" d="M719.496,510.248c0,122.299-99.123,221.438-221.421,221.438
		c-122.293,0-221.416-99.139-221.416-221.438c0-122.28,99.123-221.42,221.416-221.42
		C620.373,288.828,719.496,387.968,719.496,510.248z"/>
	<path style="fill:none;stroke:#231F20;stroke-width:4.0397;" d="M358.513,681.745c0,0,37.119,19.304,112.836,19.304
		c75.725,0,160.318-38.227,198.925-73.862"/>
	<path style="fill:none;stroke:#231F20;stroke-width:4.0397;" d="M572.311,608.99c0,0-32.66,71.273-26.725,80.177
		c5.947,8.905,31.184,23.75,57.909,14.846"/>
	<path style="fill:none;stroke:#231F20;stroke-width:4.0397;" d="M465.416,608.99c0,0,26.725,84.636,57.903,120.271"/>
	<path style="fill:none;stroke:#231F20;stroke-width:4.0397;" d="M388.209,622.353c0,0,43.052,49,53.451,56.428
		c10.393,7.422,20.786,26.713,13.363,47.505"/>
	<path style="fill:none;stroke:#231F20;stroke-width:4.0397;" d="M489.171,327.159c0,0-3.521-26.778,15.783-37.171"/>
	<path style="fill:none;stroke:#231F20;stroke-width:4.0397;" d="M423.839,301.909c0,0-31.178,22.748-26.726,36.105"/>
	<line style="fill:none;stroke:#231F20;stroke-width:4.0397;" x1="576.77" y1="304.891" x2="587.156" y2="334.581"/>
	<path style="fill:#FFFFFF;" d="M462.386,211.603l6.596-1.715l-0.041,67.458l-10.809,2.812l-16.637-49.632
		c-0.956-2.824-1.665-5.7-2.216-9.602l-0.163,0.047c0.07,3.392,0.163,6.883,0.163,10.299l-0.041,53.796l-6.596,1.718l0.041-67.471
		l10.727-2.788l16.884,50.844c0.715,1.869,1.259,3.896,2.056,6.831l0.153-0.036c-0.07-2.413-0.141-5.003-0.141-7.527
		L462.386,211.603z"/>
	<path style="fill:#FFFFFF;" d="M500.987,275.735c11.557,0.246,17.955-6.866,17.539-20.129c-0.286-8.196-2.852-14.553-10.809-15.432
		l-0.018-0.163c6.995-2.847,9.04-7.54,8.612-14.927c-0.569-9.96-4.833-16.808-15.723-16.175l-17.153,0.428l1.681,66.797
		L500.987,275.735z M490.254,215.857l5.847-0.153c10.106-0.439,12.888,1.904,13.1,10.194c0.333,10.235-4.359,11.957-12.466,11.717
		l-5.929,0.141L490.254,215.857z M491.602,269.29l-0.627-24.845l5.929-0.158c6.819-0.165,14.493-1.248,14.745,11.922
		c0.218,8.729-2.336,12.724-9.543,12.811L491.602,269.29z"/>
	<path style="fill:#FFFFFF;" d="M525.475,274.668l6.795,2.56l4.353-19.25l17.498,6.585L558.176,287l6.789,2.554l-14.54-78.038
		l-8.119-3.07L525.475,274.668z M552.827,256.818l-14.615-5.507l7.861-35.637l0.141,0.053L552.827,256.818z"/>
	<polygon style="fill:#231F20;" points="200.344,574.965 200.344,427.975 500.003,320.059 799.656,427.975 799.656,574.965 
		500.003,700.984 	"/>
	<polygon style="fill:#C3161C;" points="213.368,566.419 213.368,411.554 500.003,303.638 786.632,411.554 786.632,566.419 
		500.003,684.563 	"/>
	<polygon style="fill:none;stroke:#231F20;stroke-width:4.0397;" points="213.368,566.419 213.368,411.554 500.003,303.638 
		786.632,411.554 786.632,566.419 500.003,684.563 	"/>
	<polygon style="fill:#231F20;" points="452.199,506.465 452.199,638.916 401.143,617.573 401.143,540.166 412.896,549.107 
		412.896,610.42 437.963,620.882 437.963,519.569 401.133,461.016 401.133,374.371 449.592,356.07 449.592,442.732 437.834,435.667 
		437.834,372.62 415.374,381.278 415.374,447.91 	"/>
	<polygon style="fill:#231F20;" points="314.587,406.861 314.646,418.953 305.062,422.315 297.006,574.796 286.695,570.583 
		273.146,490.776 259.179,559.354 249.086,554.937 241.353,446.387 235.67,448.62 235.67,436.569 251.775,430.599 256.935,519.569 
		269.297,423.962 277.276,421.062 289.953,534.853 295.407,414.219 	"/>
	<polygon style="fill:#231F20;" points="382.508,381.331 382.508,449.287 370.236,444.495 370.236,397.968 338.723,409.749 
		338.723,481.151 352.701,481.151 352.701,465.029 364.963,465.029 364.963,519.247 352.701,519.247 352.701,503.148 
		338.723,503.148 338.723,580.068 370.236,593.044 370.236,544.209 382.508,539.341 382.508,609.957 316.175,582.699 
		316.175,570.631 326.598,574.755 326.598,402.555 	"/>
	<polygon style="fill:#231F20;" points="592.272,375.648 592.272,449.287 580.004,444.495 580.004,383.17 553.472,373.053 
		553.472,481.151 567.449,481.151 567.449,465.029 579.711,465.029 579.711,519.247 567.449,519.247 567.449,503.148 
		553.472,503.148 553.472,620.526 580.004,609.699 580.004,544.209 592.272,539.341 592.272,616.126 530.923,641.427 
		530.923,629.658 541.339,625.575 541.339,356.392 	"/>
	<polygon style="fill:#231F20;" points="514.296,363.129 514.296,358.168 501.45,352.614 501.45,632.044 508.322,632.044 
		508.322,638.862 494.765,644.094 479.815,637.989 479.815,632.044 486.851,632.044 486.851,353.493 473.998,358.671 
		473.998,363.129 462.884,363.129 462.884,350.85 494.765,338.981 525.416,350.592 525.416,363.129 	"/>
	<path style="fill:#231F20;" d="M649.859,592.218l25.758-10.14V570.97l-10.908,4.394c0,0,0-43.527,0-56.772
		c0-13.264-8.834-20.341-12.877-20.341l6.057-4.534c6.702-7.066,10.393-11.576,10.393-42.907c0-50.996-18.974-54.024-25.606-56.297
		l-35.004-13.117v12.361l9.653,3.785v196.897l-10.17,4.546v11.113l31.529-12.877V585.61l-6.496,2.976v-82.572h6.884
		c3.925,0,10.786,3.105,10.786,19.947V592.218z M650.327,444.999c0,34.863-2.536,42.684-9.579,42.684h-8.042v-84.325l9.536,3.527
		C645.67,408.151,650.327,412.789,650.327,444.999z"/>
	<polygon style="fill:#231F20;" points="685.032,577.59 685.032,566.675 694.44,563.237 694.44,426.955 685.032,423.165 
		685.032,410.845 708.5,419 737.287,523.587 737.287,443.247 725.771,438.619 725.771,425.433 758.214,437.559 758.214,451.133 
		748.682,447.342 748.682,551.52 737.785,556.107 705.834,450.928 705.834,569.265 	"/>
	<polygon style="fill:#FFFFFF;" points="457.254,502.428 457.254,634.867 406.188,613.524 406.188,536.131 417.945,545.065 
		417.945,606.373 443.019,616.835 443.019,515.534 406.183,456.985 406.183,370.335 454.642,352.034 454.642,438.695 
		442.89,431.619 442.89,368.584 420.418,377.23 420.418,443.863 	"/>
	<polygon style="fill:#FFFFFF;" points="319.637,402.825 319.69,414.905 310.111,418.267 302.056,570.759 291.746,566.548 
		278.189,486.745 264.229,555.311 254.135,550.9 246.39,442.345 240.719,444.582 240.719,432.521 256.818,426.569 261.986,515.521 
		274.335,419.932 282.326,417.032 295.009,530.806 300.457,410.171 	"/>
	<polygon style="fill:#FFFFFF;" points="387.553,377.283 387.553,445.257 375.291,440.458 375.291,393.932 343.78,405.714 
		343.78,477.114 357.745,477.114 357.745,460.992 370.019,460.992 370.019,515.199 357.745,515.199 357.745,499.1 343.78,499.1 
		343.78,576.019 375.291,588.996 375.291,540.166 387.553,535.292 387.553,605.92 321.225,578.662 321.225,566.571 331.641,570.712 
		331.641,398.507 	"/>
	<polygon style="fill:#FFFFFF;" points="597.321,371.612 597.321,445.257 585.059,440.458 585.059,379.128 558.521,369.022 
		558.521,477.114 572.5,477.114 572.5,460.992 584.76,460.992 584.76,515.199 572.5,515.199 572.5,499.1 558.521,499.1 
		558.521,616.488 585.059,605.652 585.059,540.166 597.321,535.292 597.321,612.095 535.966,637.391 535.966,625.617 
		546.388,621.539 546.388,352.344 	"/>
	<polygon style="fill:#FFFFFF;" points="519.347,359.099 519.347,354.136 506.505,348.583 506.505,628.001 513.371,628.001 
		513.371,634.832 499.804,640.051 484.859,633.953 484.859,628.001 491.901,628.001 491.901,349.444 479.054,354.64 
		479.054,359.099 467.929,359.099 467.929,346.802 499.804,334.945 530.466,346.555 530.466,359.099 	"/>
	<path style="fill:#FFFFFF;" d="M654.908,588.177l25.752-10.148v-11.108l-10.908,4.405c0,0,0-43.533,0-56.784
		c0-13.252-8.834-20.323-12.871-20.323l6.058-4.552c6.691-7.066,10.393-11.576,10.393-42.907c0-50.985-18.976-54.013-25.607-56.281
		l-35.009-13.123v12.361l9.66,3.778v196.903l-10.175,4.553v11.095l31.529-12.877v-11.611l-6.486,2.976v-82.572h6.878
		c3.925,0,10.786,3.116,10.786,19.947V588.177z M655.365,440.962c0,34.864-2.519,42.69-9.566,42.69h-8.055V399.31l9.549,3.532
		C650.725,404.113,655.365,408.754,655.365,440.962z"/>
	<polygon style="fill:#FFFFFF;" points="690.081,573.559 690.081,562.628 699.495,559.202 699.495,422.919 690.081,419.128 
		690.081,406.809 713.555,414.958 742.332,519.558 742.332,439.199 730.82,434.583 730.82,421.401 763.263,433.517 763.263,447.096 
		753.726,443.311 753.726,547.485 742.835,552.071 710.884,446.891 710.884,565.216 	"/>
	<path style="fill:#231F20;" d="M288.694,642.722c4.575-2.642,7.786-6.174,5.109-11.042c-3.703-6.749-14.429-0.973-19.585,1.852
		c-5.407,2.736-17.276,9.133-13.362,16.257c2.548,4.639,7.305,3.303,11.828,1.422c0.937-0.391,1.851-0.831,2.788-1.224l2.138,3.891
		c-0.831,0.333-1.669,0.79-2.501,1.13c-3.303,1.507-5.776,2.684-9.408,2.484c-3.814-0.281-6.713-1.862-8.564-5.23
		c-5.947-10.821,5.453-17.575,14.768-22.695c8.799-4.833,20.474-9.726,25.958,0.251c3.656,6.65,0.041,13.146-7.036,16.791
		L288.694,642.722z"/>
	<path style="fill:#231F20;" d="M304.476,680.373c-9.226,8.215-17.305,17.112-9.602,25.929c7.699,8.811,17.633,2.045,26.972-6.04
		c7.733-6.685,15.817-15.659,8.114-24.476C322.121,666.812,312.168,673.654,304.476,680.373z M318.735,696.877
		c-9.737,8.441-15.659,12.044-20.51,6.496c-4.856-5.554-0.487-10.931,9.186-19.456c7.435-6.566,14.552-10.515,19.058-5.36
		C331.107,683.871,326.245,690.398,318.735,696.877z"/>
	<path style="fill:#231F20;" d="M378.173,718.624l3.666,2.501l-25.067,36.813l-6.011-4.095l10.779-35.771
		c0.609-2.027,1.347-3.966,2.543-6.392l-0.094-0.058c-1.225,1.898-2.478,3.843-3.75,5.706l-19.989,29.355l-3.673-2.496l25.074-36.82
		l5.964,4.06l-11.114,36.551c-0.375,1.399-0.861,2.794-1.593,4.809l0.087,0.059c0.862-1.353,1.781-2.812,2.719-4.184
		L378.173,718.624z"/>
	<polygon style="fill:#231F20;" points="396.123,777.288 411.027,735.319 428.759,741.616 427.266,745.811 413.721,740.996 
		408.83,754.768 421.426,759.238 419.931,763.433 407.342,758.964 400.306,778.776 	"/>
	<polygon style="fill:#231F20;" points="453.101,792.349 458.156,748.097 478.07,750.375 477.566,754.798 462.058,753.028 
		460.383,767.663 474.935,769.326 474.431,773.744 459.879,772.08 458.01,788.431 473.629,790.211 473.119,794.634 	"/>
	<path style="fill:#231F20;" d="M517.713,775.097l7.709-0.761c5.214-0.522,7.19,3.11,7.629,7.539
		c0.287,2.952,1.259,8.406,2.501,11.148l5.159-0.503l-0.104-1.008c-1.06,0.106-1.57-1.817-1.817-2.63
		c-0.754-3.268-1.34-6.491-1.833-9.784c-1.224-5.841-2.677-7.551-7.891-7.57l-0.012-0.122c4.563-1.166,7.059-5.174,6.708-10.387
		c-0.75-10.252-6.309-12.15-14.663-11.324l-10.264,1.018l4.394,44.331l4.417-0.439L517.713,775.097z M515.686,754.711l6.228-0.622
		c2.976-0.287,8.371-0.65,9.231,6.966c0.873,7.733-4.837,8.659-6.905,8.922l-6.966,0.685L515.686,754.711z"/>
	<polygon style="fill:#231F20;" points="581.744,782.983 566.933,740.972 585.832,734.299 587.315,738.5 572.593,743.696 
		577.503,757.58 591.31,752.712 592.792,756.913 578.973,761.787 584.45,777.3 599.266,772.074 600.749,776.269 	"/>
	<path style="fill:#231F20;" d="M630.871,709.097l3.679-2.465l24.798,37l-6.04,4.049l-29.163-23.358
		c-1.652-1.317-3.18-2.729-4.98-4.739l-0.083,0.058c1.295,1.846,2.632,3.744,3.885,5.618l19.778,29.503l-3.685,2.467l-24.798-37
		l5.992-4.02l29.762,23.954c1.16,0.873,2.261,1.846,3.866,3.276l0.083-0.065c-0.932-1.299-1.94-2.7-2.86-4.076L630.871,709.097z"/>
	<path style="fill:#231F20;" d="M681.91,680.246c-3.967-3.505-8.338-5.419-12.098-1.331c-5.215,5.665,3.673,13.99,7.997,17.974
		c4.311,4.259,14.159,13.469,19.66,7.487c3.585-3.895,0.808-7.972-2.414-11.663c-0.674-0.768-1.382-1.489-2.05-2.25l3.005-3.269
		c0.587,0.686,1.278,1.33,1.869,2.01c2.478,2.648,4.382,4.621,5.354,8.125c0.945,3.708,0.371,6.96-2.23,9.79
		c-8.367,9.086-18.396,0.434-26.222-6.772c-7.382-6.797-15.741-16.305-8.026-24.682c5.138-5.583,12.449-4.229,18.155,1.318
		L681.91,680.246z"/>
	<polygon style="fill:#231F20;" points="732.549,664.563 694.346,641.65 704.656,624.468 708.477,626.752 700.445,640.139 
		713.075,647.72 720.609,635.16 724.435,637.445 716.901,650.004 731.007,658.464 739.093,644.99 742.906,647.28 	"/>
	<path style="fill:#FFFFFF;" d="M288.852,639.577c4.575-2.642,7.785-6.174,5.114-11.044c-3.709-6.747-14.43-0.972-19.584,1.859
		c-5.407,2.729-17.276,9.127-13.369,16.25c2.554,4.64,7.311,3.303,11.833,1.424c0.932-0.393,1.851-0.832,2.784-1.224l2.137,3.889
		c-0.832,0.339-1.669,0.798-2.495,1.131c-3.311,1.505-5.776,2.688-9.409,2.483c-3.82-0.28-6.72-1.856-8.565-5.231
		c-5.952-10.82,5.449-17.569,14.769-22.695c8.793-4.833,20.474-9.724,25.959,0.252c3.649,6.649,0.034,13.146-7.042,16.796
		L288.852,639.577z"/>
	<path style="fill:#FFFFFF;" d="M304.634,677.234c-9.227,8.208-17.3,17.107-9.602,25.923c7.704,8.816,17.64,2.05,26.977-6.041
		c7.733-6.684,15.813-15.658,8.115-24.475C322.279,663.667,312.332,670.508,304.634,677.234z M318.899,693.737
		c-9.742,8.441-15.659,12.044-20.516,6.491c-4.851-5.554-0.48-10.932,9.192-19.45c7.427-6.567,14.552-10.522,19.056-5.365
		C331.272,680.726,326.403,687.251,318.899,693.737z"/>
	<path style="fill:#FFFFFF;" d="M378.338,715.477l3.666,2.501l-25.067,36.813l-6.011-4.089l10.779-35.771
		c0.604-2.033,1.347-3.972,2.537-6.398l-0.088-0.058c-1.225,1.898-2.484,3.843-3.75,5.706l-19.994,29.363l-3.673-2.503
		l25.079-36.819l5.958,4.06l-11.107,36.555c-0.376,1.395-0.867,2.79-1.594,4.804l0.083,0.059c0.866-1.354,1.787-2.807,2.718-4.184
		L378.338,715.477z"/>
	<polygon style="fill:#FFFFFF;" points="396.281,774.142 411.19,732.173 428.924,738.471 427.43,742.666 413.885,737.85 
		408.993,751.623 421.583,756.092 420.095,760.287 407.506,755.817 400.464,775.635 	"/>
	<polygon style="fill:#FFFFFF;" points="453.265,789.204 458.315,744.95 478.227,747.228 477.724,751.652 462.222,749.883 
		460.548,764.517 475.093,766.181 474.596,770.598 460.043,768.94 458.174,785.284 473.787,787.066 473.276,791.495 	"/>
	<path style="fill:#FFFFFF;" d="M517.871,771.951l7.716-0.755c5.213-0.522,7.181,3.105,7.62,7.541
		c0.293,2.946,1.266,8.4,2.503,11.148l5.161-0.51l-0.1-1.006c-1.066,0.104-1.576-1.817-1.821-2.63
		c-0.75-3.264-1.337-6.486-1.829-9.778c-1.224-5.847-2.683-7.558-7.897-7.575l-0.01-0.123c4.562-1.166,7.065-5.172,6.707-10.386
		c-0.744-10.252-6.309-12.15-14.657-11.325l-10.264,1.019l4.394,44.329l4.411-0.438L517.871,771.951z M515.849,751.564l6.221-0.621
		c2.983-0.287,8.371-0.65,9.24,6.972c0.867,7.732-4.84,8.653-6.908,8.915l-6.971,0.692L515.849,751.564z"/>
	<polygon style="fill:#FFFFFF;" points="581.908,779.836 567.093,737.826 585.991,731.154 587.473,735.361 572.756,740.55 
		577.661,754.441 591.468,749.567 592.95,753.766 579.137,758.64 584.614,774.159 599.429,768.934 600.911,773.128 	"/>
	<path style="fill:#FFFFFF;" d="M631.03,705.951l3.679-2.467l24.798,37l-6.04,4.049l-29.157-23.351
		c-1.657-1.324-3.182-2.736-4.98-4.746l-0.087,0.059c1.293,1.852,2.63,3.743,3.889,5.618l19.778,29.504l-3.691,2.465l-24.792-37
		l5.993-4.014l29.754,23.95c1.16,0.873,2.261,1.846,3.866,3.274l0.088-0.064c-0.938-1.301-1.939-2.7-2.865-4.078L631.03,705.951z"/>
	<path style="fill:#FFFFFF;" d="M682.067,677.105c-3.959-3.509-8.331-5.425-12.091-1.336c-5.214,5.665,3.673,13.989,7.996,17.974
		c4.312,4.259,14.154,13.467,19.66,7.487c3.58-3.891,0.803-7.974-2.419-11.664c-0.667-0.767-1.378-1.488-2.05-2.249l3.005-3.27
		c0.587,0.686,1.285,1.331,1.869,2.016c2.484,2.648,4.382,4.617,5.355,8.125c0.948,3.703,0.374,6.96-2.226,9.791
		c-8.366,9.085-18.402,0.426-26.222-6.779c-7.387-6.795-15.748-16.303-8.032-24.68c5.143-5.583,12.449-4.23,18.161,1.318
		L682.067,677.105z"/>
	<polygon style="fill:#FFFFFF;" points="732.707,661.417 694.506,638.511 704.816,621.323 708.641,623.607 700.609,636.994 
		713.239,644.574 720.772,632.013 724.593,634.298 717.059,646.859 731.167,655.323 739.255,641.845 743.07,644.134 	"/>
</g>
</svg>
